<svg width="106" height="106" viewBox="0 0 106 106" fill="none" xmlns="http://www.w3.org/2000/svg">
<g filter="url(#filter0_d_405_32)">
<rect x="4" width="98" height="98" rx="10" fill="url(#paint0_linear_405_32)"/>
</g>
<rect x="14" y="18" width="79" height="63" rx="5" fill="#323232"/>
<rect x="18" y="22" width="71" height="55" fill="#DADADA"/>
<rect x="54" y="30" width="1" height="40" rx="0.5" fill="#4E4444"/>
<rect x="43" y="40" width="2" height="18" rx="1" transform="rotate(90 43 40)" fill="#4E4444"/>
<rect x="43" y="58" width="2" height="18" rx="1" transform="rotate(90 43 58)" fill="#4E4444"/>
<rect x="43" y="49" width="2" height="18" rx="1" transform="rotate(90 43 49)" fill="#4E4444"/>
<rect x="83" y="42" width="2" height="18" rx="1" transform="rotate(90 83 42)" fill="#4E4444"/>
<rect x="83" y="54" width="2" height="18" rx="1" transform="rotate(90 83 54)" fill="#4E4444"/>
<defs>
<filter id="filter0_d_405_32" x="0" y="0" width="106" height="106" filterUnits="userSpaceOnUse" color-interpolation-filters="sRGB">
<feFlood flood-opacity="0" result="BackgroundImageFix"/>
<feColorMatrix in="SourceAlpha" type="matrix" values="0 0 0 0 0 0 0 0 0 0 0 0 0 0 0 0 0 0 127 0" result="hardAlpha"/>
<feOffset dy="4"/>
<feGaussianBlur stdDeviation="2"/>
<feComposite in2="hardAlpha" operator="out"/>
<feColorMatrix type="matrix" values="0 0 0 0 0 0 0 0 0 0 0 0 0 0 0 0 0 0 0.25 0"/>
<feBlend mode="normal" in2="BackgroundImageFix" result="effect1_dropShadow_405_32"/>
<feBlend mode="normal" in="SourceGraphic" in2="effect1_dropShadow_405_32" result="shape"/>
</filter>
<linearGradient id="paint0_linear_405_32" x1="8" y1="-24.5" x2="168.5" y2="190" gradientUnits="userSpaceOnUse">
<stop offset="0.161458" stop-color="#A7EC71"/>
</linearGradient>
</defs>
</svg>
