<svg xmlns="http://www.w3.org/2000/svg" width="106" height="106" fill="none" viewBox="0 0 106 106"><g filter="url(#filter0_d_405_32)"><rect width="98" height="98" x="4" fill="url(#paint0_linear_405_32)" rx="10"/></g><rect width="79" height="63" x="14" y="18" fill="#323232" rx="5"/><rect width="71" height="55" x="18" y="22" fill="#DADADA"/><rect width="1" height="40" x="54" y="30" fill="#4E4444" rx=".5"/><rect width="2" height="18" x="43" y="40" fill="#4E4444" rx="1" transform="rotate(90 43 40)"/><rect width="2" height="18" x="43" y="58" fill="#4E4444" rx="1" transform="rotate(90 43 58)"/><rect width="2" height="18" x="43" y="49" fill="#4E4444" rx="1" transform="rotate(90 43 49)"/><rect width="2" height="18" x="83" y="42" fill="#4E4444" rx="1" transform="rotate(90 83 42)"/><rect width="2" height="18" x="83" y="54" fill="#4E4444" rx="1" transform="rotate(90 83 54)"/><defs><filter id="filter0_d_405_32" width="106" height="106" x="0" y="0" color-interpolation-filters="sRGB" filterUnits="userSpaceOnUse"><feFlood flood-opacity="0" result="BackgroundImageFix"/><feColorMatrix in="SourceAlpha" result="hardAlpha" type="matrix" values="0 0 0 0 0 0 0 0 0 0 0 0 0 0 0 0 0 0 127 0"/><feOffset dy="4"/><feGaussianBlur stdDeviation="2"/><feComposite in2="hardAlpha" operator="out"/><feColorMatrix type="matrix" values="0 0 0 0 0 0 0 0 0 0 0 0 0 0 0 0 0 0 0.25 0"/><feBlend in2="BackgroundImageFix" mode="normal" result="effect1_dropShadow_405_32"/><feBlend in="SourceGraphic" in2="effect1_dropShadow_405_32" mode="normal" result="shape"/></filter><linearGradient id="paint0_linear_405_32" x1="8" x2="168.5" y1="-24.5" y2="190" gradientUnits="userSpaceOnUse"><stop offset=".161" stop-color="#A7EC71"/></linearGradient></defs></svg>